<svg width="25" height="25" viewBox="0 0 25 25" fill="none" xmlns="http://www.w3.org/2000/svg">
<path fill-rule="evenodd" clip-rule="evenodd" d="M19.9347 11.346H13.9045V5.27684C13.9045 4.71746 13.4543 4.2653 12.8995 4.2653C12.3447 4.2653 11.8945 4.71746 11.8945 5.27684V11.346H5.86432C5.30955 11.346 4.8593 11.7982 4.8593 12.3576C4.8593 12.917 5.30955 13.3691 5.86432 13.3691H11.8945V19.4383C11.8945 19.9977 12.3447 20.4499 12.8995 20.4499C13.4543 20.4499 13.9045 19.9977 13.9045 19.4383V13.3691H19.9347C20.4894 13.3691 20.9397 12.917 20.9397 12.3576C20.9397 11.7982 20.4894 11.346 19.9347 11.346Z" fill="#231F20"/>
<mask id="mask0" mask-type="alpha" maskUnits="userSpaceOnUse" x="4" y="4" width="17" height="17">
<path fill-rule="evenodd" clip-rule="evenodd" d="M19.9347 11.346H13.9045V5.27684C13.9045 4.71746 13.4543 4.2653 12.8995 4.2653C12.3447 4.2653 11.8945 4.71746 11.8945 5.27684V11.346H5.86432C5.30955 11.346 4.8593 11.7982 4.8593 12.3576C4.8593 12.917 5.30955 13.3691 5.86432 13.3691H11.8945V19.4383C11.8945 19.9977 12.3447 20.4499 12.8995 20.4499C13.4543 20.4499 13.9045 19.9977 13.9045 19.4383V13.3691H19.9347C20.4894 13.3691 20.9397 12.917 20.9397 12.3576C20.9397 11.7982 20.4894 11.346 19.9347 11.346Z" fill="white"/>
</mask>
<g mask="url(#mask0)">
<rect x="0.839203" y="0.219162" width="24.1206" height="24.2768" fill="white"/>
</g>
</svg>
